<?xml version="1.0" standalone="no"?>
<!DOCTYPE svg PUBLIC "-//W3C//DTD SVG 20010904//EN"
 "http://www.w3.org/TR/2001/REC-SVG-20010904/DTD/svg10.dtd">
<svg version="1.0" xmlns="http://www.w3.org/2000/svg"
 width="1024.000000pt" height="1024.000000pt" viewBox="0 0 1024.000000 1024.000000"
 preserveAspectRatio="xMidYMid meet">
<metadata>
Created by potrace 1.11, written by Peter Selinger 2001-2013
</metadata>
<g transform="translate(0.000000,1024.000000) scale(0.100000,-0.100000)"
fill="#000000" stroke="none">
<path d="M4669 8737 c-19 -16 -28 -35 -33 -71 -5 -38 -13 -55 -36 -74 -27 -22
-30 -31 -30 -78 0 -30 -4 -54 -10 -54 -5 0 -10 6 -10 13 0 8 -11 24 -25 37
-22 21 -35 24 -117 25 l-91 1 -40 -37 c-48 -46 -67 -55 -67 -31 0 28 -59 66
-105 67 -31 1 -46 -5 -67 -26 l-28 -27 0 80 c0 74 -2 83 -26 104 -38 36 -100
33 -137 -5 -15 -16 -27 -34 -27 -40 0 -15 -17 -14 -23 2 -4 11 -37 13 -122 8
-37 -3 -58 -47 -57 -122 1 -39 -3 -69 -9 -69 -5 0 -14 -10 -20 -22 -32 -71
-64 -108 -96 -108 -12 0 -23 -4 -23 -10 0 -5 -7 -10 -15 -10 -11 0 -15 11 -15
43 0 60 -40 97 -105 97 -41 0 -51 -5 -86 -40 -21 -21 -39 -45 -39 -51 0 -19
-33 -89 -42 -89 -4 0 -8 -30 -9 -67 -1 -38 -4 -58 -7 -46 -11 35 -55 63 -102
63 -56 0 -120 -48 -120 -90 0 -29 -15 -40 -55 -40 -16 0 -49 -25 -99 -74 -60
-59 -76 -80 -76 -103 0 -19 -10 -39 -30 -58 -25 -24 -30 -36 -30 -77 0 -37 5
-51 20 -60 15 -10 20 -24 20 -59 0 -54 -7 -59 -84 -59 -47 0 -55 -4 -89 -38
l-37 -38 0 -197 c0 -178 -2 -200 -20 -232 -11 -20 -20 -49 -20 -65 0 -17 -4
-30 -9 -30 -4 0 -11 -54 -14 -121 -3 -67 -10 -126 -16 -132 -13 -13 -16 -673
-2 -681 4 -3 11 -27 14 -53 3 -26 10 -49 16 -51 6 -2 11 -12 11 -23 0 -10 3
-19 8 -19 12 0 32 -51 32 -81 0 -15 5 -31 10 -34 6 -3 10 -19 10 -36 0 -16 4
-37 9 -47 41 -81 51 -108 51 -132 0 -16 4 -31 9 -34 4 -3 7 -17 6 -31 -2 -14
7 -41 21 -60 13 -20 24 -38 24 -40 0 -3 11 -28 25 -57 14 -28 25 -69 25 -90 0
-21 5 -38 10 -38 6 0 10 -13 10 -28 0 -31 43 -123 65 -142 8 -7 15 -17 15 -22
0 -13 498 -501 520 -510 10 -4 21 -11 24 -17 4 -6 24 -18 44 -28 20 -9 49 -25
64 -35 14 -10 33 -18 42 -18 9 0 16 -4 16 -9 0 -5 15 -13 33 -16 17 -4 34 -10
37 -14 13 -17 136 -71 161 -71 15 0 31 -4 34 -10 3 -6 31 -10 61 -10 30 0 54
-4 54 -10 0 -5 14 -10 30 -10 17 0 38 -4 48 -9 24 -14 73 -24 98 -22 11 1 27
-5 34 -13 7 -9 22 -16 35 -16 32 0 38 -11 15 -34 -16 -18 -20 -38 -22 -121
l-3 -100 -33 -3 c-19 -2 -38 -11 -45 -23 -6 -10 -22 -19 -34 -19 -13 0 -41
-19 -68 -47 -48 -49 -52 -50 -151 -59 -48 -4 -63 -2 -73 10 -10 12 -31 16 -77
16 -35 0 -64 -4 -64 -8 0 -12 -73 -42 -103 -42 -15 0 -27 -4 -27 -10 0 -5 -7
-10 -15 -10 -8 0 -48 -34 -90 -75 -41 -41 -81 -75 -88 -75 -15 0 -83 -71 -80
-82 1 -3 -24 -32 -57 -65 -33 -32 -60 -62 -60 -67 0 -6 -12 -22 -26 -37 -28
-29 -49 -62 -60 -91 -3 -10 -10 -18 -15 -18 -5 0 -9 -20 -9 -44 0 -26 -6 -48
-15 -56 -22 -18 -45 -70 -45 -102 0 -15 -4 -28 -10 -28 -5 0 -10 -15 -10 -34
0 -19 -4 -38 -10 -41 -6 -3 -10 -48 -10 -101 0 -56 -4 -94 -10 -94 -5 0 -10
-20 -10 -43 0 -32 -6 -49 -21 -63 -11 -10 -18 -26 -16 -35 3 -10 -1 -20 -8
-23 -7 -2 -16 -23 -20 -45 -4 -23 -11 -43 -16 -47 -5 -3 -9 -47 -9 -98 0 -105
-10 -132 -65 -186 -48 -46 -49 -99 -4 -146 l31 -32 -23 -7 c-32 -10 -89 -65
-89 -85 0 -22 -26 -75 -45 -90 -8 -7 -15 -18 -15 -25 0 -6 -9 -20 -20 -30 -32
-29 -27 -88 11 -125 36 -34 51 -37 73 -15 8 8 20 15 27 15 18 0 60 50 57 69
-2 9 9 27 24 39 20 17 28 34 29 60 2 34 2 35 6 7 3 -16 9 -34 14 -39 12 -13
12 -56 -1 -56 -5 0 -10 -22 -10 -49 0 -28 5 -53 10 -56 6 -3 10 -19 10 -34 0
-35 40 -73 76 -73 17 0 36 9 49 24 19 22 21 36 20 116 -2 84 0 93 21 113 18
17 24 33 24 66 0 27 4 42 10 38 13 -8 13 -105 0 -105 -5 0 -10 -11 -10 -24 0
-14 -5 -28 -10 -31 -6 -3 -10 -48 -10 -98 0 -89 1 -93 29 -120 38 -36 72 -35
110 4 26 26 31 38 31 79 0 27 4 52 10 55 5 3 10 28 10 54 0 27 3 63 6 80 l7
32 13 -27 c8 -14 14 -34 14 -44 0 -9 9 -25 20 -35 11 -10 20 -24 20 -32 0 -7
5 -13 10 -13 6 0 10 -12 10 -26 0 -31 42 -74 72 -74 11 0 31 11 44 26 19 20
24 36 24 79 0 30 -4 56 -9 60 -14 8 -41 65 -41 86 0 10 -4 21 -10 24 -5 3 -10
24 -10 45 0 21 -4 42 -10 45 -5 3 -10 15 -10 26 0 14 7 19 30 19 34 0 110 67
110 97 0 10 7 31 15 47 8 15 15 46 15 67 0 24 5 39 13 39 18 1 67 47 67 64 0
8 13 24 30 36 16 12 33 32 36 46 4 14 13 24 23 24 20 0 61 44 61 65 0 8 3 15
8 15 4 0 13 15 21 33 8 17 20 39 27 47 6 8 14 26 17 40 2 14 5 5 6 -22 0 -27
-3 -48 -9 -48 -5 0 -10 -24 -10 -54 0 -30 -5 -58 -10 -61 -6 -4 -10 -143 -10
-385 0 -242 -4 -381 -10 -385 -5 -3 -10 -30 -10 -60 0 -30 -4 -57 -10 -60 -5
-3 -10 -47 -10 -96 0 -87 1 -91 30 -119 l31 -30 942 0 942 0 43 41 c43 42 52
68 28 88 -7 6 -16 35 -18 65 -3 36 -11 60 -26 76 -19 20 -22 35 -22 102 0 54
-4 80 -12 83 -9 4 -12 28 -10 85 2 52 0 80 -7 80 -14 0 -15 97 -1 105 6 3 10
21 10 40 0 19 5 37 10 40 6 4 10 58 10 130 0 72 4 126 10 130 6 3 10 15 10 26
0 10 4 19 9 19 5 0 11 66 13 148 3 172 13 200 55 160 13 -12 21 -28 19 -34 -3
-7 4 -24 15 -37 10 -14 19 -37 19 -51 0 -14 9 -41 20 -61 11 -20 20 -40 20
-46 0 -6 9 -23 20 -39 11 -15 17 -30 14 -33 -5 -5 15 -41 39 -72 20 -26 57
-87 57 -93 0 -5 13 -19 30 -32 16 -14 29 -31 30 -39 0 -20 40 -69 109 -136 34
-32 61 -67 61 -78 0 -10 17 -36 37 -58 28 -29 45 -39 68 -39 l31 0 2 -64 c2
-52 -2 -66 -18 -81 -16 -15 -20 -31 -20 -87 0 -60 3 -72 27 -98 14 -17 34 -30
44 -30 26 0 78 55 85 90 4 16 10 30 15 30 5 0 9 7 9 15 0 23 19 18 29 -8 5
-13 16 -29 25 -36 9 -7 16 -19 16 -25 0 -7 13 -24 28 -39 41 -39 88 -37 130 6
47 49 45 92 -8 140 -22 19 -40 40 -40 46 0 5 -7 17 -16 26 -9 9 -14 18 -12 21
8 7 48 -32 48 -47 1 -8 19 -27 41 -44 22 -16 50 -40 61 -52 32 -34 106 -32
136 2 33 38 29 84 -11 123 -18 18 -37 32 -43 32 -9 0 -44 71 -44 90 0 18 18
11 38 -15 11 -14 27 -25 35 -25 9 0 19 -4 22 -10 3 -5 43 -10 89 -10 77 0 84
2 109 28 34 36 34 68 0 104 -21 22 -36 28 -70 28 -36 0 -46 5 -65 30 -12 16
-30 30 -39 30 -32 0 -30 19 5 52 19 18 37 45 40 61 5 31 -18 97 -35 97 -6 0
-8 8 -5 18 4 12 -1 26 -14 37 -14 13 -20 31 -20 60 0 29 -6 47 -20 60 -11 10
-20 23 -20 29 0 7 -9 18 -20 26 -11 8 -20 22 -20 32 0 10 -9 23 -20 30 -11 7
-20 24 -20 38 0 14 -8 30 -19 37 -13 8 -17 19 -13 38 3 19 -3 34 -22 54 -14
15 -24 30 -20 33 3 4 -4 11 -15 18 -12 6 -21 18 -21 26 0 23 -210 226 -227
220 -21 -9 -153 125 -153 155 0 13 -9 30 -20 37 -14 8 -20 23 -20 47 0 19 -4
35 -10 35 -5 0 -10 20 -10 44 0 25 -4 48 -10 51 -5 3 -10 32 -10 64 0 54 -16
111 -32 111 -5 0 -8 8 -8 18 0 10 -9 24 -21 32 -11 8 -27 30 -35 48 -15 37
-101 132 -119 132 -6 0 -34 22 -61 50 -27 27 -53 50 -59 50 -5 0 -32 11 -59
25 -49 25 -50 25 -343 25 l-293 0 0 113 c0 101 -2 116 -20 132 -28 26 -25 44
8 44 39 -1 84 11 104 28 9 8 22 13 30 12 21 -4 78 12 78 22 0 5 9 9 20 9 11 0
25 9 32 20 7 11 19 20 27 20 8 0 33 20 57 45 23 25 48 45 57 45 9 0 22 8 29
18 7 9 25 23 41 29 15 7 27 17 27 23 0 5 9 10 19 10 10 0 21 6 24 14 3 8 23
22 44 31 77 33 108 49 127 65 10 8 19 14 20 12 3 -7 53 17 65 32 7 9 19 16 25
16 7 0 28 16 47 36 30 32 103 74 127 74 5 0 17 9 27 20 10 11 24 20 32 20 7 0
13 5 13 10 0 6 6 10 13 10 20 0 73 28 87 45 7 8 18 15 25 15 7 0 15 7 19 15 3
8 14 15 25 15 11 0 25 9 31 20 6 11 17 20 26 20 16 0 184 162 184 177 0 5 29
39 63 74 35 35 70 79 78 97 8 17 17 32 21 32 5 0 8 18 8 40 0 22 5 40 10 40 6
0 10 11 10 24 0 14 5 28 11 32 6 3 9 19 7 35 -3 17 1 34 9 40 8 7 13 33 13 68
0 32 5 62 13 69 9 10 13 89 15 310 2 163 8 301 13 307 11 12 12 255 0 255 -4
0 -11 24 -15 53 -6 53 -28 111 -47 122 -5 4 -7 10 -4 15 3 5 1 11 -5 15 -5 3
-10 17 -10 31 0 13 -4 24 -10 24 -5 0 -10 7 -10 15 0 8 5 15 10 15 6 0 10 26
10 59 0 33 -4 63 -10 66 -6 4 -10 88 -10 221 0 118 -4 214 -8 214 -5 0 -15 12
-23 27 -27 52 -57 73 -102 73 -35 0 -47 -6 -70 -31 l-27 -31 0 90 0 91 -37 36
c-35 33 -43 35 -90 33 -42 -1 -57 3 -76 20 -13 13 -36 22 -54 22 -33 0 -63 26
-63 56 0 29 -53 74 -87 74 -50 0 -53 11 -53 185 l0 160 -44 43 c-38 37 -49 42
-88 42 -57 0 -88 -31 -88 -90 0 -22 -3 -40 -8 -40 -11 0 -37 -62 -33 -80 2
-12 0 -12 -10 -3 -8 8 -12 33 -10 67 2 42 -2 59 -16 73 -10 10 -25 33 -32 51
-8 18 -29 48 -48 67 -31 31 -41 35 -86 35 -42 0 -56 -5 -79 -27 -26 -25 -29
-25 -46 -10 -10 9 -33 17 -50 17 -30 0 -32 3 -30 30 4 47 -34 80 -93 80 -38 0
-52 -5 -65 -23 l-18 -23 -50 53 c-45 48 -54 53 -93 53 -41 0 -48 -5 -113 -72
-54 -55 -73 -69 -82 -60 -7 7 -20 12 -30 12 -17 0 -18 12 -18 153 l0 153 -28
27 c-37 35 -104 37 -143 4z"/>
</g>
</svg>
